<?xml version="1.0" encoding="utf-8"?>
<!-- Generator: Adobe Illustrator 16.0.0, SVG Export Plug-In . SVG Version: 6.00 Build 0)  -->
<!DOCTYPE svg PUBLIC "-//W3C//DTD SVG 1.1//EN" "http://www.w3.org/Graphics/SVG/1.1/DTD/svg11.dtd">
<svg version="1.1" id="Layer_1" xmlns="http://www.w3.org/2000/svg" xmlns:xlink="http://www.w3.org/1999/xlink" x="0px" y="0px"
	 width="595.28px" height="841.89px" viewBox="0 0 595.28 841.89" style="enable-background:new 0 0 595.28 841.89;"
	 xml:space="preserve">
<g>
	<path style="fill:#FFFFFF;" d="M328.946,340h-1.779c-18.7,0-34.167,13.96-34.167,31.181v43.638C293,432.04,308.467,446,327.167,446
		h1.779c18.7,0,33.054-13.96,33.054-31.182v-43.638C362,353.96,347.646,340,328.946,340z M355,414.818
		C355,428.329,343.68,439,328.946,439h-1.779C312.404,439,300,428.104,300,414.818v-43.638C300,357.895,312.404,347,327.167,347
		h1.779C343.68,347,355,357.67,355,371.181V414.818z"/>
	<path style="fill:#FFFFFF;" d="M332,377.125c0,2.14-1.735,3.875-3.875,3.875h-0.25c-2.14,0-3.875-1.735-3.875-3.875v-12.25
		c0-2.14,1.735-3.875,3.875-3.875h0.25c2.14,0,3.875,1.735,3.875,3.875V377.125z"/>
	<g>
		<path style="fill:#FFFFFF;" d="M346.726,458.045c-1.475-1.522-3.906-1.562-5.429-0.087l-13.49,13.067l-13.491-13.067
			c-1.522-1.475-3.954-1.436-5.429,0.087c-1.474,1.523-1.436,3.954,0.087,5.429l15.757,15.262c0.851,0.824,1.983,1.158,3.076,1.043
			c1.092,0.115,2.225-0.219,3.075-1.043l15.757-15.262C348.161,461.999,348.199,459.568,346.726,458.045z"/>
		<path style="fill:#FFFFFF;" d="M346.726,481.045c-1.475-1.522-3.906-1.562-5.429-0.087l-13.49,13.067l-13.491-13.067
			c-1.522-1.475-3.954-1.436-5.429,0.087c-1.474,1.523-1.436,3.954,0.087,5.429l15.757,15.262c0.851,0.824,1.983,1.158,3.076,1.043
			c1.092,0.115,2.225-0.219,3.075-1.043l15.757-15.262C348.161,484.999,348.199,482.568,346.726,481.045z"/>
	</g>
</g>
<g>
</g>
<g>
</g>
<g>
</g>
<g>
</g>
<g>
</g>
<g>
</g>
</svg>
